<?xml version="1.0" encoding="utf-8"?>
<!-- Generator: Adobe Illustrator 19.2.0, SVG Export Plug-In . SVG Version: 6.00 Build 0)  -->
<svg version="1.1" id="Layer_2" xmlns="http://www.w3.org/2000/svg" xmlns:xlink="http://www.w3.org/1999/xlink" x="0px" y="0px"
	 viewBox="0 0 840 840" style="enable-background:new 0 0 840 840;" xml:space="preserve">
<style type="text/css">
	.st0{fill-rule:evenodd;clip-rule:evenodd;fill:#8B4E57;}
	.st1{fill-rule:evenodd;clip-rule:evenodd;fill:#CA8159;}
	.st2{fill-rule:evenodd;clip-rule:evenodd;fill:#E1B87F;}
</style>
<g>
	<path class="st0" d="M201.5,623.7c0-103.8,80.1-189.9,184.8-205.1c-104.6-15.3-184.8-101.3-184.8-205.1
		c0-74.1,40.8-139,102.1-175.8C132.5,86.1,7.7,238.6,7.7,419.2c0,182.2,127,335.7,300.3,382.8C244.2,765.8,201.5,699.5,201.5,623.7z
		"/>
	<path class="st0" d="M534.7,37.1C596.5,73.8,637.6,139,637.6,213.4c0,103.8-80.1,189.9-184.8,205.1
		c104.6,15.3,184.8,101.3,184.8,205.1c0,76.1-43.1,142.7-107.3,178.8c174.2-46.5,302-200.5,302-383.3
		C832.3,238,706.6,85.1,534.7,37.1z"/>
</g>
<path class="st1" d="M538.3,58.8c13.3,21.4,21,46.7,21,73.7c0,77.2-62.6,139.7-139.7,139.7c-77.2,0-139.7-62.6-139.7-139.7
	c0-27.1,7.7-52.3,21-73.7c-50.5,34.9-83.3,91.6-83.3,155.6c0,106.2,90.4,192.3,202,192.3s202-86.1,202-192.3
	C621.6,150.4,588.7,93.8,538.3,58.8z"/>
<path class="st1" d="M419.6,432.4c-111.6,0-202,86.1-202,192.3c0,63.5,32.4,119.9,82.3,154.9c-12.7-21.1-20-45.7-20-72.1
	c0-77.2,62.6-139.7,139.7-139.7c77.2,0,139.7,62.6,139.7,139.7c0,26.4-7.3,51.1-20,72.1c49.9-35,82.3-91.3,82.3-154.9
	C621.6,518.5,531.1,432.4,419.6,432.4z"/>
<circle class="st2" cx="419.6" cy="132.6" r="124.7"/>
<circle class="st2" cx="419.6" cy="707.4" r="124.7"/>
</svg>
